<mxfile host="app.diagrams.net" modified="2022-11-23T07:31:13.368Z" agent="5.0 (Windows NT 10.0; Win64; x64) AppleWebKit/537.36 (KHTML, like Gecko) Chrome/107.0.0.0 Safari/537.36" etag="tz5ELa13xAysRHKqJgUB" version="20.6.0" type="github">
  <diagram name="Page-1" id="8378b5f6-a2b2-b727-a746-972ab9d02e00">
    <mxGraphModel dx="982" dy="539" grid="1" gridSize="10" guides="1" tooltips="1" connect="0" arrows="1" fold="1" page="1" pageScale="1.5" pageWidth="1169" pageHeight="827" background="none" math="0" shadow="0">
      <root>
        <mxCell id="0" />
        <mxCell id="1" parent="0" />
        <mxCell id="dIrE19unJ05-w4xrA9a4-304" value="" style="strokeColor=#DEEDFF;fillColor=#D4E1FF" vertex="1" parent="1">
          <mxGeometry x="926.500000000002" y="380.0000000000075" width="20" height="520" as="geometry" />
        </mxCell>
        <mxCell id="dIrE19unJ05-w4xrA9a4-305" value="" style="strokeColor=#DEEDFF" vertex="1" parent="1">
          <mxGeometry x="946.500000000002" y="380.00000000002206" width="20" height="520" as="geometry" />
        </mxCell>
        <mxCell id="dIrE19unJ05-w4xrA9a4-306" value="" style="strokeColor=#DEEDFF" vertex="1" parent="1">
          <mxGeometry x="966.500000000002" y="380.00000000002206" width="20" height="520" as="geometry" />
        </mxCell>
        <mxCell id="dIrE19unJ05-w4xrA9a4-307" value="" style="strokeColor=#DEEDFF;fillColor=#D4E1FF" vertex="1" parent="1">
          <mxGeometry x="986.500000000002" y="380.0000000000075" width="20" height="520" as="geometry" />
        </mxCell>
        <mxCell id="dIrE19unJ05-w4xrA9a4-308" value="" style="strokeColor=#DEEDFF" vertex="1" parent="1">
          <mxGeometry x="1006.500000000002" y="380.00000000002206" width="20" height="520" as="geometry" />
        </mxCell>
        <mxCell id="dIrE19unJ05-w4xrA9a4-309" value="" style="strokeColor=#DEEDFF" vertex="1" parent="1">
          <mxGeometry x="1026.500000000002" y="380.00000000002206" width="20" height="520" as="geometry" />
        </mxCell>
        <mxCell id="dIrE19unJ05-w4xrA9a4-310" value="" style="strokeColor=#DEEDFF;fillColor=#D4E1FF" vertex="1" parent="1">
          <mxGeometry x="1046.500000000002" y="380.0000000000075" width="20" height="520" as="geometry" />
        </mxCell>
        <mxCell id="dIrE19unJ05-w4xrA9a4-311" value="" style="strokeColor=#DEEDFF" vertex="1" parent="1">
          <mxGeometry x="1066.500000000002" y="380.00000000002206" width="20" height="520" as="geometry" />
        </mxCell>
        <mxCell id="dIrE19unJ05-w4xrA9a4-312" value="" style="strokeColor=#DEEDFF" vertex="1" parent="1">
          <mxGeometry x="1086.500000000002" y="380.00000000002206" width="20" height="520" as="geometry" />
        </mxCell>
        <mxCell id="dIrE19unJ05-w4xrA9a4-313" value="" style="strokeColor=#DEEDFF;fillColor=#D4E1FF" vertex="1" parent="1">
          <mxGeometry x="1106.500000000002" y="380.0000000000075" width="20" height="520" as="geometry" />
        </mxCell>
        <mxCell id="dIrE19unJ05-w4xrA9a4-314" value="" style="strokeColor=#DEEDFF" vertex="1" parent="1">
          <mxGeometry x="1126.500000000002" y="380.00000000002206" width="20" height="520" as="geometry" />
        </mxCell>
        <mxCell id="dIrE19unJ05-w4xrA9a4-315" value="" style="strokeColor=#DEEDFF" vertex="1" parent="1">
          <mxGeometry x="1146.500000000002" y="380.00000000002206" width="20" height="520" as="geometry" />
        </mxCell>
        <mxCell id="dIrE19unJ05-w4xrA9a4-295" value="" style="strokeColor=#DEEDFF;fillColor=#D4E1FF" vertex="1" parent="1">
          <mxGeometry x="746.500000000002" y="380.0000000000075" width="20" height="520" as="geometry" />
        </mxCell>
        <mxCell id="dIrE19unJ05-w4xrA9a4-296" value="" style="strokeColor=#DEEDFF" vertex="1" parent="1">
          <mxGeometry x="766.500000000002" y="380.00000000002206" width="20" height="520" as="geometry" />
        </mxCell>
        <mxCell id="dIrE19unJ05-w4xrA9a4-297" value="" style="strokeColor=#DEEDFF" vertex="1" parent="1">
          <mxGeometry x="786.500000000002" y="380.00000000002206" width="20" height="520" as="geometry" />
        </mxCell>
        <mxCell id="dIrE19unJ05-w4xrA9a4-298" value="" style="strokeColor=#DEEDFF;fillColor=#D4E1FF" vertex="1" parent="1">
          <mxGeometry x="806.500000000002" y="380.0000000000075" width="20" height="520" as="geometry" />
        </mxCell>
        <mxCell id="dIrE19unJ05-w4xrA9a4-299" value="" style="strokeColor=#DEEDFF" vertex="1" parent="1">
          <mxGeometry x="826.500000000002" y="380.00000000002206" width="20" height="520" as="geometry" />
        </mxCell>
        <mxCell id="dIrE19unJ05-w4xrA9a4-300" value="" style="strokeColor=#DEEDFF" vertex="1" parent="1">
          <mxGeometry x="846.500000000002" y="380.00000000002206" width="20" height="520" as="geometry" />
        </mxCell>
        <mxCell id="dIrE19unJ05-w4xrA9a4-301" value="" style="strokeColor=#DEEDFF;fillColor=#D4E1FF" vertex="1" parent="1">
          <mxGeometry x="866.500000000002" y="380.0000000000075" width="20" height="520" as="geometry" />
        </mxCell>
        <mxCell id="dIrE19unJ05-w4xrA9a4-302" value="" style="strokeColor=#DEEDFF" vertex="1" parent="1">
          <mxGeometry x="886.500000000002" y="380.00000000002206" width="20" height="520" as="geometry" />
        </mxCell>
        <mxCell id="dIrE19unJ05-w4xrA9a4-303" value="" style="strokeColor=#DEEDFF" vertex="1" parent="1">
          <mxGeometry x="906.500000000002" y="380.00000000002206" width="20" height="520" as="geometry" />
        </mxCell>
        <mxCell id="199" value="" style="strokeColor=#DEEDFF;fillColor=#D4E1FF" parent="1" vertex="1">
          <mxGeometry x="686.500000000002" y="380.0000000000075" width="20" height="520" as="geometry" />
        </mxCell>
        <mxCell id="218" value="" style="strokeColor=#DEEDFF" parent="1" vertex="1">
          <mxGeometry x="706.500000000002" y="380.00000000002206" width="20" height="520" as="geometry" />
        </mxCell>
        <mxCell id="dIrE19unJ05-w4xrA9a4-294" value="" style="strokeColor=#DEEDFF" vertex="1" parent="1">
          <mxGeometry x="726.500000000002" y="380.00000000002206" width="20" height="520" as="geometry" />
        </mxCell>
        <mxCell id="dIrE19unJ05-w4xrA9a4-278" value="2024" style="fillColor=#23445D;strokeColor=#FFFFFF;strokeWidth=2;fontColor=#FFFFFF;fontStyle=1" vertex="1" parent="1">
          <mxGeometry x="926.5" y="340" width="240" height="20" as="geometry" />
        </mxCell>
        <mxCell id="dIrE19unJ05-w4xrA9a4-279" value="1" style="fillColor=#23445D;strokeColor=#FFFFFF;strokeWidth=2;fontColor=#FFFFFF;fontStyle=1" vertex="1" parent="1">
          <mxGeometry x="926.5000000000018" y="360.0000000000001" width="20" height="20" as="geometry" />
        </mxCell>
        <mxCell id="dIrE19unJ05-w4xrA9a4-280" value="2" style="fillColor=#23445D;strokeColor=#FFFFFF;strokeWidth=2;fontColor=#FFFFFF;fontStyle=1" vertex="1" parent="1">
          <mxGeometry x="946.5000000000018" y="360.0000000000001" width="20" height="20" as="geometry" />
        </mxCell>
        <mxCell id="dIrE19unJ05-w4xrA9a4-281" value="3" style="fillColor=#23445D;strokeColor=#FFFFFF;strokeWidth=2;fontColor=#FFFFFF;fontStyle=1" vertex="1" parent="1">
          <mxGeometry x="966.5000000000018" y="360.0000000000001" width="20" height="20" as="geometry" />
        </mxCell>
        <mxCell id="dIrE19unJ05-w4xrA9a4-282" value="4" style="fillColor=#23445D;strokeColor=#FFFFFF;strokeWidth=2;fontColor=#FFFFFF;fontStyle=1" vertex="1" parent="1">
          <mxGeometry x="986.5000000000018" y="360.0000000000001" width="20" height="20" as="geometry" />
        </mxCell>
        <mxCell id="dIrE19unJ05-w4xrA9a4-283" value="5" style="fillColor=#23445D;strokeColor=#FFFFFF;strokeWidth=2;fontColor=#FFFFFF;fontStyle=1" vertex="1" parent="1">
          <mxGeometry x="1006.5000000000016" y="360.0000000000001" width="20" height="20" as="geometry" />
        </mxCell>
        <mxCell id="dIrE19unJ05-w4xrA9a4-284" value="6" style="fillColor=#23445D;strokeColor=#FFFFFF;strokeWidth=2;fontColor=#FFFFFF;fontStyle=1" vertex="1" parent="1">
          <mxGeometry x="1026.5000000000016" y="360.0000000000001" width="20" height="20" as="geometry" />
        </mxCell>
        <mxCell id="dIrE19unJ05-w4xrA9a4-285" value="7" style="fillColor=#23445D;strokeColor=#FFFFFF;strokeWidth=2;fontColor=#FFFFFF;fontStyle=1" vertex="1" parent="1">
          <mxGeometry x="1046.5000000000016" y="360.0000000000001" width="20" height="20" as="geometry" />
        </mxCell>
        <mxCell id="dIrE19unJ05-w4xrA9a4-286" value="8" style="fillColor=#23445D;strokeColor=#FFFFFF;strokeWidth=2;fontColor=#FFFFFF;fontStyle=1" vertex="1" parent="1">
          <mxGeometry x="1066.5000000000018" y="360.0000000000001" width="20" height="20" as="geometry" />
        </mxCell>
        <mxCell id="dIrE19unJ05-w4xrA9a4-287" value="9" style="fillColor=#23445D;strokeColor=#FFFFFF;strokeWidth=2;fontColor=#FFFFFF;fontStyle=1" vertex="1" parent="1">
          <mxGeometry x="1086.5000000000018" y="360.0000000000001" width="20" height="20" as="geometry" />
        </mxCell>
        <mxCell id="dIrE19unJ05-w4xrA9a4-288" value="10" style="fillColor=#23445D;strokeColor=#FFFFFF;strokeWidth=2;fontColor=#FFFFFF;fontStyle=1" vertex="1" parent="1">
          <mxGeometry x="1106.5000000000018" y="360.0000000000001" width="20" height="20" as="geometry" />
        </mxCell>
        <mxCell id="dIrE19unJ05-w4xrA9a4-289" value="11" style="fillColor=#23445D;strokeColor=#FFFFFF;strokeWidth=2;fontColor=#FFFFFF;fontStyle=1" vertex="1" parent="1">
          <mxGeometry x="1126.5000000000018" y="360.0000000000001" width="20" height="20" as="geometry" />
        </mxCell>
        <mxCell id="dIrE19unJ05-w4xrA9a4-290" value="12" style="fillColor=#23445D;strokeColor=#FFFFFF;strokeWidth=2;fontColor=#FFFFFF;fontStyle=1" vertex="1" parent="1">
          <mxGeometry x="1146.5000000000016" y="360.0000000000001" width="20" height="20" as="geometry" />
        </mxCell>
        <mxCell id="69" value="1" style="strokeColor=#DEEDFF;" parent="1" vertex="1">
          <mxGeometry x="86.50000000000026" y="399.9999999999999" width="40" height="20" as="geometry" />
        </mxCell>
        <mxCell id="70" value="仕様決定" style="align=left;strokeColor=#DEEDFF;" parent="1" vertex="1">
          <mxGeometry x="126.50000000000026" y="399.9999999999999" width="319.9999999999998" height="20" as="geometry" />
        </mxCell>
        <mxCell id="71" value="" style="strokeColor=#DEEDFF;" parent="1" vertex="1">
          <mxGeometry x="446.500000000002" y="399.99999999999983" width="80.00000000000028" height="20" as="geometry" />
        </mxCell>
        <mxCell id="72" value="" style="strokeColor=#DEEDFF;" parent="1" vertex="1">
          <mxGeometry x="526.5000000000023" y="399.99999999999983" width="80.00000000000028" height="20" as="geometry" />
        </mxCell>
        <mxCell id="73" value="" style="strokeColor=#DEEDFF;" parent="1" vertex="1">
          <mxGeometry x="606.5000000000018" y="400.0000000000001" width="80.00000000000028" height="20" as="geometry" />
        </mxCell>
        <mxCell id="74" value="2" style="strokeColor=#DEEDFF" parent="1" vertex="1">
          <mxGeometry x="86.50000000000027" y="419.9999999999998" width="40" height="20" as="geometry" />
        </mxCell>
        <mxCell id="75" value="回路図作成" style="align=left;strokeColor=#DEEDFF" parent="1" vertex="1">
          <mxGeometry x="126.50000000000027" y="419.9999999999998" width="319.9999999999997" height="20.000000000000014" as="geometry" />
        </mxCell>
        <mxCell id="76" value="" style="strokeColor=#DEEDFF" parent="1" vertex="1">
          <mxGeometry x="446.500000000002" y="419.9999999999997" width="80.00000000000028" height="20" as="geometry" />
        </mxCell>
        <mxCell id="77" value="" style="strokeColor=#DEEDFF" parent="1" vertex="1">
          <mxGeometry x="526.5000000000023" y="419.9999999999997" width="80.00000000000028" height="20" as="geometry" />
        </mxCell>
        <mxCell id="78" value="" style="strokeColor=#DEEDFF" parent="1" vertex="1">
          <mxGeometry x="606.5000000000018" y="420" width="80.00000000000028" height="20" as="geometry" />
        </mxCell>
        <mxCell id="79" value="3" style="strokeColor=#DEEDFF" parent="1" vertex="1">
          <mxGeometry x="86.5" y="440.00000000000017" width="40" height="20" as="geometry" />
        </mxCell>
        <mxCell id="80" value="技術試作" style="align=left;strokeColor=#DEEDFF" parent="1" vertex="1">
          <mxGeometry x="126.5" y="440.00000000000017" width="320" height="20" as="geometry" />
        </mxCell>
        <mxCell id="81" value="" style="strokeColor=#DEEDFF" parent="1" vertex="1">
          <mxGeometry x="446.5000000000017" y="440.0000000000001" width="80.00000000000028" height="20" as="geometry" />
        </mxCell>
        <mxCell id="82" value="" style="strokeColor=#DEEDFF" parent="1" vertex="1">
          <mxGeometry x="526.500000000002" y="440.0000000000001" width="80.00000000000028" height="20" as="geometry" />
        </mxCell>
        <mxCell id="83" value="" style="strokeColor=#DEEDFF" parent="1" vertex="1">
          <mxGeometry x="606.5000000000015" y="440.0000000000004" width="80.00000000000028" height="20" as="geometry" />
        </mxCell>
        <mxCell id="84" value="4" style="strokeColor=#DEEDFF" parent="1" vertex="1">
          <mxGeometry x="86.49999999999991" y="460.00000000000017" width="40" height="20" as="geometry" />
        </mxCell>
        <mxCell id="85" value="基板発注" style="align=left;strokeColor=#DEEDFF" parent="1" vertex="1">
          <mxGeometry x="126.49999999999991" y="460.00000000000017" width="320.0000000000001" height="20" as="geometry" />
        </mxCell>
        <mxCell id="86" value="" style="strokeColor=#DEEDFF" parent="1" vertex="1">
          <mxGeometry x="446.50000000000165" y="460.0000000000001" width="80.00000000000028" height="20" as="geometry" />
        </mxCell>
        <mxCell id="87" value="" style="strokeColor=#DEEDFF" parent="1" vertex="1">
          <mxGeometry x="526.5000000000019" y="460.0000000000001" width="80.00000000000028" height="20" as="geometry" />
        </mxCell>
        <mxCell id="88" value="" style="strokeColor=#DEEDFF" parent="1" vertex="1">
          <mxGeometry x="606.5000000000015" y="460.0000000000004" width="80.00000000000028" height="20" as="geometry" />
        </mxCell>
        <mxCell id="89" value="5" style="strokeColor=#DEEDFF" parent="1" vertex="1">
          <mxGeometry x="86.4999999999999" y="480.00000000000045" width="40" height="20" as="geometry" />
        </mxCell>
        <mxCell id="90" value="ケースCAD設計" style="align=left;strokeColor=#DEEDFF" parent="1" vertex="1">
          <mxGeometry x="126.4999999999999" y="480.00000000000045" width="320.0000000000001" height="20" as="geometry" />
        </mxCell>
        <mxCell id="91" value="" style="strokeColor=#DEEDFF" parent="1" vertex="1">
          <mxGeometry x="446.50000000000165" y="480.00000000000034" width="80.00000000000028" height="20" as="geometry" />
        </mxCell>
        <mxCell id="92" value="" style="strokeColor=#DEEDFF" parent="1" vertex="1">
          <mxGeometry x="526.5000000000019" y="480.00000000000034" width="80.00000000000028" height="20" as="geometry" />
        </mxCell>
        <mxCell id="93" value="" style="strokeColor=#DEEDFF" parent="1" vertex="1">
          <mxGeometry x="606.5000000000015" y="480.0000000000007" width="80.00000000000028" height="20" as="geometry" />
        </mxCell>
        <mxCell id="94" value="6" style="strokeColor=#DEEDFF" parent="1" vertex="1">
          <mxGeometry x="86.50000000000063" y="500.0000000000007" width="40" height="20" as="geometry" />
        </mxCell>
        <mxCell id="95" value="Supervision and meetings" style="align=left;strokeColor=#DEEDFF" parent="1" vertex="1">
          <mxGeometry x="126.50000000000063" y="500.0000000000007" width="319.9999999999994" height="20" as="geometry" />
        </mxCell>
        <mxCell id="97" value="" style="strokeColor=#DEEDFF" parent="1" vertex="1">
          <mxGeometry x="526.5000000000027" y="500.0000000000007" width="80.00000000000028" height="20" as="geometry" />
        </mxCell>
        <mxCell id="2" value="Task Name" style="fillColor=#23445D;strokeColor=#FFFFFF;strokeWidth=2;fontColor=#FFFFFF;fontStyle=1" parent="1" vertex="1">
          <mxGeometry x="126.5" y="340" width="320" height="40" as="geometry" />
        </mxCell>
        <mxCell id="3" value="" style="fillColor=#23445D;strokeColor=#FFFFFF;strokeWidth=2;fontColor=#FFFFFF;fontStyle=1" parent="1" vertex="1">
          <mxGeometry x="86.5" y="340" width="40" height="40" as="geometry" />
        </mxCell>
        <mxCell id="4" value="2023" style="fillColor=#23445D;strokeColor=#FFFFFF;strokeWidth=2;fontColor=#FFFFFF;fontStyle=1" parent="1" vertex="1">
          <mxGeometry x="686.5" y="340" width="240" height="20" as="geometry" />
        </mxCell>
        <mxCell id="5" value="1" style="fillColor=#23445D;strokeColor=#FFFFFF;strokeWidth=2;fontColor=#FFFFFF;fontStyle=1" parent="1" vertex="1">
          <mxGeometry x="686.5000000000018" y="360.0000000000001" width="20" height="20" as="geometry" />
        </mxCell>
        <mxCell id="6" value="2" style="fillColor=#23445D;strokeColor=#FFFFFF;strokeWidth=2;fontColor=#FFFFFF;fontStyle=1" parent="1" vertex="1">
          <mxGeometry x="706.5000000000018" y="360.0000000000001" width="20" height="20" as="geometry" />
        </mxCell>
        <mxCell id="7" value="3" style="fillColor=#23445D;strokeColor=#FFFFFF;strokeWidth=2;fontColor=#FFFFFF;fontStyle=1" parent="1" vertex="1">
          <mxGeometry x="726.5000000000018" y="360.0000000000001" width="20" height="20" as="geometry" />
        </mxCell>
        <mxCell id="8" value="4" style="fillColor=#23445D;strokeColor=#FFFFFF;strokeWidth=2;fontColor=#FFFFFF;fontStyle=1" parent="1" vertex="1">
          <mxGeometry x="746.5000000000018" y="360.0000000000001" width="20" height="20" as="geometry" />
        </mxCell>
        <mxCell id="9" value="5" style="fillColor=#23445D;strokeColor=#FFFFFF;strokeWidth=2;fontColor=#FFFFFF;fontStyle=1" parent="1" vertex="1">
          <mxGeometry x="766.5000000000016" y="360.0000000000001" width="20" height="20" as="geometry" />
        </mxCell>
        <mxCell id="10" value="6" style="fillColor=#23445D;strokeColor=#FFFFFF;strokeWidth=2;fontColor=#FFFFFF;fontStyle=1" parent="1" vertex="1">
          <mxGeometry x="786.5000000000016" y="360.0000000000001" width="20" height="20" as="geometry" />
        </mxCell>
        <mxCell id="11" value="7" style="fillColor=#23445D;strokeColor=#FFFFFF;strokeWidth=2;fontColor=#FFFFFF;fontStyle=1" parent="1" vertex="1">
          <mxGeometry x="806.5000000000016" y="360.0000000000001" width="20" height="20" as="geometry" />
        </mxCell>
        <mxCell id="12" value="Duration" style="fillColor=#23445D;strokeColor=#FFFFFF;strokeWidth=2;fontColor=#FFFFFF;fontStyle=1" parent="1" vertex="1">
          <mxGeometry x="446.50000000000176" y="340.00000000000006" width="80.00000000000006" height="40.00000000000001" as="geometry" />
        </mxCell>
        <mxCell id="13" value="Start" style="fillColor=#23445D;strokeColor=#FFFFFF;strokeWidth=2;fontColor=#FFFFFF;fontStyle=1" parent="1" vertex="1">
          <mxGeometry x="526.5000000000018" y="340.00000000000006" width="80.00000000000006" height="40.00000000000001" as="geometry" />
        </mxCell>
        <mxCell id="14" value="ETA" style="fillColor=#23445D;strokeColor=#FFFFFF;strokeWidth=2;fontColor=#FFFFFF;fontStyle=1" parent="1" vertex="1">
          <mxGeometry x="606.5000000000019" y="340.0000000000001" width="80.00000000000006" height="40.00000000000001" as="geometry" />
        </mxCell>
        <mxCell id="16" value="8" style="fillColor=#23445D;strokeColor=#FFFFFF;strokeWidth=2;fontColor=#FFFFFF;fontStyle=1" parent="1" vertex="1">
          <mxGeometry x="826.5000000000018" y="360.0000000000001" width="20" height="20" as="geometry" />
        </mxCell>
        <mxCell id="17" value="9" style="fillColor=#23445D;strokeColor=#FFFFFF;strokeWidth=2;fontColor=#FFFFFF;fontStyle=1" parent="1" vertex="1">
          <mxGeometry x="846.5000000000018" y="360.0000000000001" width="20" height="20" as="geometry" />
        </mxCell>
        <mxCell id="18" value="10" style="fillColor=#23445D;strokeColor=#FFFFFF;strokeWidth=2;fontColor=#FFFFFF;fontStyle=1" parent="1" vertex="1">
          <mxGeometry x="866.5000000000018" y="360.0000000000001" width="20" height="20" as="geometry" />
        </mxCell>
        <mxCell id="19" value="11" style="fillColor=#23445D;strokeColor=#FFFFFF;strokeWidth=2;fontColor=#FFFFFF;fontStyle=1" parent="1" vertex="1">
          <mxGeometry x="886.5000000000018" y="360.0000000000001" width="20" height="20" as="geometry" />
        </mxCell>
        <mxCell id="20" value="12" style="fillColor=#23445D;strokeColor=#FFFFFF;strokeWidth=2;fontColor=#FFFFFF;fontStyle=1" parent="1" vertex="1">
          <mxGeometry x="906.5000000000016" y="360.0000000000001" width="20" height="20" as="geometry" />
        </mxCell>
        <mxCell id="242" value="" style="shape=mxgraph.flowchart.process;fillColor=#e51400;strokeColor=none;strokeWidth=2;opacity=50;fontColor=#ffffff;" parent="1" vertex="1">
          <mxGeometry x="686.5" y="380" width="119" height="20" as="geometry" />
        </mxCell>
        <mxCell id="244" value="" style="shape=mxgraph.flowchart.process;fillColor=#FF6666;strokeColor=none;strokeWidth=2;opacity=50;fontColor=#ffffff;fillStyle=auto;" parent="1" vertex="1">
          <mxGeometry x="686.5000000000032" y="399.9999999999997" width="20" height="20" as="geometry" />
        </mxCell>
        <mxCell id="63" value="A" style="strokeColor=none;fillColor=#f8cecc;" parent="1" vertex="1">
          <mxGeometry x="86.5" y="380" width="40" height="20" as="geometry" />
        </mxCell>
        <mxCell id="64" value="キーボード作成 feat.Blockey" style="align=left;strokeColor=none;fillColor=#f8cecc;" parent="1" vertex="1">
          <mxGeometry x="126.5" y="380" width="320" height="20" as="geometry" />
        </mxCell>
        <mxCell id="65" value="6month" style="strokeColor=none;fillColor=#f8cecc;" parent="1" vertex="1">
          <mxGeometry x="446.50000000000176" y="380" width="80.00000000000028" height="20" as="geometry" />
        </mxCell>
        <mxCell id="66" value="" style="strokeColor=none;fillColor=#f8cecc;" parent="1" vertex="1">
          <mxGeometry x="526.500000000002" y="380" width="80.00000000000028" height="20" as="geometry" />
        </mxCell>
        <mxCell id="67" value="" style="strokeColor=none;fillColor=#f8cecc;" parent="1" vertex="1">
          <mxGeometry x="606.5000000000016" y="380.0000000000002" width="80.00000000000028" height="20" as="geometry" />
        </mxCell>
        <mxCell id="dIrE19unJ05-w4xrA9a4-356" value="1" style="strokeColor=#DEEDFF;" vertex="1" parent="1">
          <mxGeometry x="86.50000000000026" y="579.9999999999999" width="40" height="20" as="geometry" />
        </mxCell>
        <mxCell id="dIrE19unJ05-w4xrA9a4-357" value="仕様設計" style="align=left;strokeColor=#DEEDFF;" vertex="1" parent="1">
          <mxGeometry x="126.50000000000026" y="579.9999999999999" width="319.9999999999998" height="20" as="geometry" />
        </mxCell>
        <mxCell id="dIrE19unJ05-w4xrA9a4-359" value="" style="strokeColor=#DEEDFF;" vertex="1" parent="1">
          <mxGeometry x="526.5000000000023" y="579.9999999999998" width="80.00000000000028" height="20" as="geometry" />
        </mxCell>
        <mxCell id="dIrE19unJ05-w4xrA9a4-360" value="" style="strokeColor=#DEEDFF;" vertex="1" parent="1">
          <mxGeometry x="606.5000000000018" y="580.0000000000001" width="80.00000000000028" height="20" as="geometry" />
        </mxCell>
        <mxCell id="dIrE19unJ05-w4xrA9a4-361" value="2" style="strokeColor=#DEEDFF" vertex="1" parent="1">
          <mxGeometry x="86.50000000000028" y="599.9999999999998" width="40" height="20" as="geometry" />
        </mxCell>
        <mxCell id="dIrE19unJ05-w4xrA9a4-364" value="" style="strokeColor=#DEEDFF" vertex="1" parent="1">
          <mxGeometry x="526.5000000000023" y="599.9999999999998" width="80.00000000000028" height="20" as="geometry" />
        </mxCell>
        <mxCell id="dIrE19unJ05-w4xrA9a4-365" value="" style="strokeColor=#DEEDFF" vertex="1" parent="1">
          <mxGeometry x="606.5000000000018" y="600" width="80.00000000000028" height="20" as="geometry" />
        </mxCell>
        <mxCell id="dIrE19unJ05-w4xrA9a4-366" value="3" style="strokeColor=#DEEDFF" vertex="1" parent="1">
          <mxGeometry x="86.5" y="620.0000000000002" width="40" height="20" as="geometry" />
        </mxCell>
        <mxCell id="dIrE19unJ05-w4xrA9a4-369" value="" style="strokeColor=#DEEDFF" vertex="1" parent="1">
          <mxGeometry x="526.500000000002" y="620.0000000000001" width="80.00000000000028" height="20" as="geometry" />
        </mxCell>
        <mxCell id="dIrE19unJ05-w4xrA9a4-370" value="" style="strokeColor=#DEEDFF" vertex="1" parent="1">
          <mxGeometry x="606.5000000000015" y="620.0000000000005" width="80.00000000000028" height="20" as="geometry" />
        </mxCell>
        <mxCell id="dIrE19unJ05-w4xrA9a4-371" value="4" style="strokeColor=#DEEDFF" vertex="1" parent="1">
          <mxGeometry x="86.49999999999991" y="640.0000000000002" width="40" height="20" as="geometry" />
        </mxCell>
        <mxCell id="dIrE19unJ05-w4xrA9a4-374" value="" style="strokeColor=#DEEDFF" vertex="1" parent="1">
          <mxGeometry x="526.5000000000019" y="640.0000000000001" width="80.00000000000028" height="20" as="geometry" />
        </mxCell>
        <mxCell id="dIrE19unJ05-w4xrA9a4-375" value="" style="strokeColor=#DEEDFF" vertex="1" parent="1">
          <mxGeometry x="606.5000000000015" y="640.0000000000005" width="80.00000000000028" height="20" as="geometry" />
        </mxCell>
        <mxCell id="dIrE19unJ05-w4xrA9a4-376" value="5" style="strokeColor=#DEEDFF" vertex="1" parent="1">
          <mxGeometry x="86.49999999999989" y="660.0000000000005" width="40" height="20" as="geometry" />
        </mxCell>
        <mxCell id="dIrE19unJ05-w4xrA9a4-379" value="" style="strokeColor=#DEEDFF" vertex="1" parent="1">
          <mxGeometry x="526.5000000000019" y="660.0000000000003" width="80.00000000000028" height="20" as="geometry" />
        </mxCell>
        <mxCell id="dIrE19unJ05-w4xrA9a4-380" value="" style="strokeColor=#DEEDFF" vertex="1" parent="1">
          <mxGeometry x="606.5000000000015" y="660.0000000000007" width="80.00000000000028" height="20" as="geometry" />
        </mxCell>
        <mxCell id="dIrE19unJ05-w4xrA9a4-381" value="6" style="strokeColor=#DEEDFF" vertex="1" parent="1">
          <mxGeometry x="86.50000000000063" y="680.0000000000007" width="40" height="20" as="geometry" />
        </mxCell>
        <mxCell id="dIrE19unJ05-w4xrA9a4-384" value="" style="strokeColor=#DEEDFF" vertex="1" parent="1">
          <mxGeometry x="526.5000000000027" y="680.0000000000007" width="80.00000000000028" height="20" as="geometry" />
        </mxCell>
        <mxCell id="dIrE19unJ05-w4xrA9a4-386" value="" style="shape=mxgraph.flowchart.process;fillColor=#60a917;strokeColor=none;strokeWidth=2;opacity=50;fillStyle=auto;fontColor=#ffffff;" vertex="1" parent="1">
          <mxGeometry x="686.5" y="560" width="119" height="20" as="geometry" />
        </mxCell>
        <mxCell id="dIrE19unJ05-w4xrA9a4-389" value="B" style="strokeColor=none;fillColor=#d5e8d4;" vertex="1" parent="1">
          <mxGeometry x="86.5" y="560" width="40" height="20" as="geometry" />
        </mxCell>
        <mxCell id="dIrE19unJ05-w4xrA9a4-390" value="テオヤンセンロボット作成" style="align=left;strokeColor=none;fillColor=#d5e8d4;" vertex="1" parent="1">
          <mxGeometry x="126.5" y="560" width="320" height="20" as="geometry" />
        </mxCell>
        <mxCell id="dIrE19unJ05-w4xrA9a4-391" value="6month" style="strokeColor=none;fillColor=#d5e8d4;" vertex="1" parent="1">
          <mxGeometry x="446.5000000000018" y="560" width="80.00000000000028" height="20" as="geometry" />
        </mxCell>
        <mxCell id="dIrE19unJ05-w4xrA9a4-392" value="" style="strokeColor=none;fillColor=#d5e8d4;" vertex="1" parent="1">
          <mxGeometry x="526.500000000002" y="560" width="80.00000000000028" height="20" as="geometry" />
        </mxCell>
        <mxCell id="dIrE19unJ05-w4xrA9a4-393" value="" style="strokeColor=none;fillColor=#d5e8d4;" vertex="1" parent="1">
          <mxGeometry x="606.5000000000016" y="560.0000000000002" width="80.00000000000028" height="20" as="geometry" />
        </mxCell>
        <mxCell id="dIrE19unJ05-w4xrA9a4-394" value="" style="strokeColor=#DEEDFF" vertex="1" parent="1">
          <mxGeometry x="606.5000000000015" y="500.0000000000007" width="80.00000000000028" height="20" as="geometry" />
        </mxCell>
        <mxCell id="dIrE19unJ05-w4xrA9a4-395" value="" style="strokeColor=#DEEDFF" vertex="1" parent="1">
          <mxGeometry x="606.5000000000015" y="680.0000000000007" width="80.00000000000028" height="20" as="geometry" />
        </mxCell>
        <mxCell id="dIrE19unJ05-w4xrA9a4-397" value="" style="strokeColor=#DEEDFF" vertex="1" parent="1">
          <mxGeometry x="446.50000000000165" y="500.00000000000034" width="80.00000000000028" height="20" as="geometry" />
        </mxCell>
        <mxCell id="dIrE19unJ05-w4xrA9a4-398" value="" style="strokeColor=#DEEDFF" vertex="1" parent="1">
          <mxGeometry x="446.50000000000165" y="680.0000000000003" width="80.00000000000028" height="20" as="geometry" />
        </mxCell>
        <mxCell id="dIrE19unJ05-w4xrA9a4-399" value="" style="strokeColor=#DEEDFF" vertex="1" parent="1">
          <mxGeometry x="446.50000000000165" y="660.0000000000003" width="80.00000000000028" height="20" as="geometry" />
        </mxCell>
        <mxCell id="dIrE19unJ05-w4xrA9a4-400" value="" style="strokeColor=#DEEDFF" vertex="1" parent="1">
          <mxGeometry x="446.50000000000165" y="640.0000000000001" width="80.00000000000028" height="20" as="geometry" />
        </mxCell>
        <mxCell id="dIrE19unJ05-w4xrA9a4-401" value="" style="strokeColor=#DEEDFF" vertex="1" parent="1">
          <mxGeometry x="446.5000000000017" y="620.0000000000001" width="80.00000000000028" height="20" as="geometry" />
        </mxCell>
        <mxCell id="dIrE19unJ05-w4xrA9a4-402" value="" style="strokeColor=#DEEDFF" vertex="1" parent="1">
          <mxGeometry x="446.500000000002" y="599.9999999999998" width="80.00000000000028" height="20" as="geometry" />
        </mxCell>
        <mxCell id="dIrE19unJ05-w4xrA9a4-403" value="" style="strokeColor=#DEEDFF;" vertex="1" parent="1">
          <mxGeometry x="446.500000000002" y="579.9999999999998" width="80.00000000000028" height="20" as="geometry" />
        </mxCell>
        <mxCell id="dIrE19unJ05-w4xrA9a4-404" value="6" style="strokeColor=#DEEDFF" vertex="1" parent="1">
          <mxGeometry x="86.50000000000063" y="500.0000000000007" width="40" height="20" as="geometry" />
        </mxCell>
        <mxCell id="dIrE19unJ05-w4xrA9a4-405" value="ケース部品発注" style="align=left;strokeColor=#DEEDFF" vertex="1" parent="1">
          <mxGeometry x="126.50000000000063" y="500.0000000000007" width="319.9999999999994" height="20" as="geometry" />
        </mxCell>
        <mxCell id="dIrE19unJ05-w4xrA9a4-406" value="" style="strokeColor=#DEEDFF" vertex="1" parent="1">
          <mxGeometry x="446.50000000000165" y="500.00000000000034" width="80.00000000000028" height="20" as="geometry" />
        </mxCell>
        <mxCell id="dIrE19unJ05-w4xrA9a4-407" value="" style="strokeColor=#DEEDFF" vertex="1" parent="1">
          <mxGeometry x="526.5000000000027" y="500.0000000000007" width="80.00000000000028" height="20" as="geometry" />
        </mxCell>
        <mxCell id="dIrE19unJ05-w4xrA9a4-408" value="" style="strokeColor=#DEEDFF" vertex="1" parent="1">
          <mxGeometry x="606.5000000000015" y="520.0000000000007" width="80.00000000000028" height="20" as="geometry" />
        </mxCell>
        <mxCell id="dIrE19unJ05-w4xrA9a4-409" value="7" style="strokeColor=#DEEDFF" vertex="1" parent="1">
          <mxGeometry x="86.50000000000063" y="520.0000000000007" width="40" height="20" as="geometry" />
        </mxCell>
        <mxCell id="dIrE19unJ05-w4xrA9a4-410" value="ソフトウェア設計" style="align=left;strokeColor=#DEEDFF" vertex="1" parent="1">
          <mxGeometry x="126.50000000000063" y="520.0000000000007" width="319.9999999999994" height="20" as="geometry" />
        </mxCell>
        <mxCell id="dIrE19unJ05-w4xrA9a4-411" value="" style="strokeColor=#DEEDFF" vertex="1" parent="1">
          <mxGeometry x="446.50000000000165" y="520.0000000000003" width="80.00000000000028" height="20" as="geometry" />
        </mxCell>
        <mxCell id="dIrE19unJ05-w4xrA9a4-412" value="" style="strokeColor=#DEEDFF" vertex="1" parent="1">
          <mxGeometry x="526.5000000000027" y="520.0000000000007" width="80.00000000000028" height="20" as="geometry" />
        </mxCell>
        <mxCell id="dIrE19unJ05-w4xrA9a4-413" value="８" style="strokeColor=#DEEDFF" vertex="1" parent="1">
          <mxGeometry x="86.50000000000063" y="540.0000000000007" width="40" height="20" as="geometry" />
        </mxCell>
        <mxCell id="dIrE19unJ05-w4xrA9a4-414" value="組み立て" style="align=left;strokeColor=#DEEDFF" vertex="1" parent="1">
          <mxGeometry x="126.50000000000063" y="540.0000000000007" width="319.9999999999994" height="20" as="geometry" />
        </mxCell>
        <mxCell id="dIrE19unJ05-w4xrA9a4-415" value="" style="strokeColor=#DEEDFF" vertex="1" parent="1">
          <mxGeometry x="446.50000000000165" y="540.0000000000003" width="80.00000000000028" height="20" as="geometry" />
        </mxCell>
        <mxCell id="dIrE19unJ05-w4xrA9a4-416" value="" style="strokeColor=#DEEDFF" vertex="1" parent="1">
          <mxGeometry x="526.5000000000027" y="540.0000000000007" width="80.00000000000028" height="20" as="geometry" />
        </mxCell>
        <mxCell id="dIrE19unJ05-w4xrA9a4-417" value="" style="strokeColor=#DEEDFF" vertex="1" parent="1">
          <mxGeometry x="606.5000000000015" y="540.0000000000007" width="80.00000000000028" height="20" as="geometry" />
        </mxCell>
        <mxCell id="dIrE19unJ05-w4xrA9a4-418" value="1" style="strokeColor=#DEEDFF;" vertex="1" parent="1">
          <mxGeometry x="87.50000000000026" y="719.9999999999999" width="40" height="20" as="geometry" />
        </mxCell>
        <mxCell id="dIrE19unJ05-w4xrA9a4-419" value="仕様設計" style="align=left;strokeColor=#DEEDFF;" vertex="1" parent="1">
          <mxGeometry x="127.50000000000026" y="719.9999999999999" width="319.9999999999998" height="20" as="geometry" />
        </mxCell>
        <mxCell id="dIrE19unJ05-w4xrA9a4-420" value="" style="strokeColor=#DEEDFF;" vertex="1" parent="1">
          <mxGeometry x="527.5000000000023" y="719.9999999999998" width="80.00000000000028" height="20" as="geometry" />
        </mxCell>
        <mxCell id="dIrE19unJ05-w4xrA9a4-421" value="" style="strokeColor=#DEEDFF;" vertex="1" parent="1">
          <mxGeometry x="607.5000000000018" y="720.0000000000001" width="80.00000000000028" height="20" as="geometry" />
        </mxCell>
        <mxCell id="dIrE19unJ05-w4xrA9a4-422" value="2" style="strokeColor=#DEEDFF" vertex="1" parent="1">
          <mxGeometry x="87.50000000000028" y="739.9999999999998" width="40" height="20" as="geometry" />
        </mxCell>
        <mxCell id="dIrE19unJ05-w4xrA9a4-423" value="" style="strokeColor=#DEEDFF" vertex="1" parent="1">
          <mxGeometry x="527.5000000000023" y="739.9999999999998" width="80.00000000000028" height="20" as="geometry" />
        </mxCell>
        <mxCell id="dIrE19unJ05-w4xrA9a4-424" value="" style="strokeColor=#DEEDFF" vertex="1" parent="1">
          <mxGeometry x="607.5000000000018" y="740" width="80.00000000000028" height="20" as="geometry" />
        </mxCell>
        <mxCell id="dIrE19unJ05-w4xrA9a4-425" value="3" style="strokeColor=#DEEDFF" vertex="1" parent="1">
          <mxGeometry x="87.5" y="760.0000000000002" width="40" height="20" as="geometry" />
        </mxCell>
        <mxCell id="dIrE19unJ05-w4xrA9a4-426" value="" style="strokeColor=#DEEDFF" vertex="1" parent="1">
          <mxGeometry x="527.500000000002" y="760.0000000000001" width="80.00000000000028" height="20" as="geometry" />
        </mxCell>
        <mxCell id="dIrE19unJ05-w4xrA9a4-427" value="" style="strokeColor=#DEEDFF" vertex="1" parent="1">
          <mxGeometry x="607.5000000000015" y="760.0000000000005" width="80.00000000000028" height="20" as="geometry" />
        </mxCell>
        <mxCell id="dIrE19unJ05-w4xrA9a4-428" value="4" style="strokeColor=#DEEDFF" vertex="1" parent="1">
          <mxGeometry x="87.49999999999991" y="780.0000000000002" width="40" height="20" as="geometry" />
        </mxCell>
        <mxCell id="dIrE19unJ05-w4xrA9a4-429" value="" style="strokeColor=#DEEDFF" vertex="1" parent="1">
          <mxGeometry x="527.5000000000019" y="780.0000000000001" width="80.00000000000028" height="20" as="geometry" />
        </mxCell>
        <mxCell id="dIrE19unJ05-w4xrA9a4-430" value="" style="strokeColor=#DEEDFF" vertex="1" parent="1">
          <mxGeometry x="607.5000000000015" y="780.0000000000005" width="80.00000000000028" height="20" as="geometry" />
        </mxCell>
        <mxCell id="dIrE19unJ05-w4xrA9a4-431" value="5" style="strokeColor=#DEEDFF" vertex="1" parent="1">
          <mxGeometry x="87.49999999999989" y="800.0000000000005" width="40" height="20" as="geometry" />
        </mxCell>
        <mxCell id="dIrE19unJ05-w4xrA9a4-432" value="" style="strokeColor=#DEEDFF" vertex="1" parent="1">
          <mxGeometry x="527.5000000000019" y="800.0000000000003" width="80.00000000000028" height="20" as="geometry" />
        </mxCell>
        <mxCell id="dIrE19unJ05-w4xrA9a4-433" value="" style="strokeColor=#DEEDFF" vertex="1" parent="1">
          <mxGeometry x="607.5000000000015" y="800.0000000000007" width="80.00000000000028" height="20" as="geometry" />
        </mxCell>
        <mxCell id="dIrE19unJ05-w4xrA9a4-434" value="" style="shape=mxgraph.flowchart.process;fillColor=#fa6800;strokeColor=none;strokeWidth=2;opacity=50;fillStyle=auto;fontColor=#000000;" vertex="1" parent="1">
          <mxGeometry x="687.5" y="700" width="119" height="20" as="geometry" />
        </mxCell>
        <mxCell id="dIrE19unJ05-w4xrA9a4-435" value="C" style="strokeColor=none;fillColor=#ffe6cc;" vertex="1" parent="1">
          <mxGeometry x="87.5" y="700" width="40" height="20" as="geometry" />
        </mxCell>
        <mxCell id="dIrE19unJ05-w4xrA9a4-436" value="テオヤンセンロボット作成" style="align=left;strokeColor=none;fillColor=#ffe6cc;" vertex="1" parent="1">
          <mxGeometry x="127.5" y="700" width="320" height="20" as="geometry" />
        </mxCell>
        <mxCell id="dIrE19unJ05-w4xrA9a4-437" value="6month" style="strokeColor=none;fillColor=#ffe6cc;" vertex="1" parent="1">
          <mxGeometry x="447.5000000000018" y="700" width="80.00000000000028" height="20" as="geometry" />
        </mxCell>
        <mxCell id="dIrE19unJ05-w4xrA9a4-438" value="" style="strokeColor=none;fillColor=#ffe6cc;" vertex="1" parent="1">
          <mxGeometry x="527.500000000002" y="700" width="80.00000000000028" height="20" as="geometry" />
        </mxCell>
        <mxCell id="dIrE19unJ05-w4xrA9a4-439" value="" style="strokeColor=none;fillColor=#ffe6cc;" vertex="1" parent="1">
          <mxGeometry x="607.5000000000016" y="700.0000000000002" width="80.00000000000028" height="20" as="geometry" />
        </mxCell>
        <mxCell id="dIrE19unJ05-w4xrA9a4-440" value="" style="strokeColor=#DEEDFF" vertex="1" parent="1">
          <mxGeometry x="447.50000000000165" y="800.0000000000003" width="80.00000000000028" height="20" as="geometry" />
        </mxCell>
        <mxCell id="dIrE19unJ05-w4xrA9a4-441" value="" style="strokeColor=#DEEDFF" vertex="1" parent="1">
          <mxGeometry x="447.50000000000165" y="780.0000000000001" width="80.00000000000028" height="20" as="geometry" />
        </mxCell>
        <mxCell id="dIrE19unJ05-w4xrA9a4-442" value="" style="strokeColor=#DEEDFF" vertex="1" parent="1">
          <mxGeometry x="447.5000000000017" y="760.0000000000001" width="80.00000000000028" height="20" as="geometry" />
        </mxCell>
        <mxCell id="dIrE19unJ05-w4xrA9a4-443" value="" style="strokeColor=#DEEDFF" vertex="1" parent="1">
          <mxGeometry x="447.500000000002" y="739.9999999999998" width="80.00000000000028" height="20" as="geometry" />
        </mxCell>
        <mxCell id="dIrE19unJ05-w4xrA9a4-444" value="" style="strokeColor=#DEEDFF;" vertex="1" parent="1">
          <mxGeometry x="447.500000000002" y="719.9999999999998" width="80.00000000000028" height="20" as="geometry" />
        </mxCell>
        <mxCell id="dIrE19unJ05-w4xrA9a4-445" value="" style="shape=mxgraph.flowchart.process;fillColor=#FF6666;strokeColor=none;strokeWidth=2;opacity=50;fontColor=#ffffff;fillStyle=auto;" vertex="1" parent="1">
          <mxGeometry x="696.5" y="420" width="40" height="20" as="geometry" />
        </mxCell>
        <mxCell id="dIrE19unJ05-w4xrA9a4-446" value="" style="shape=mxgraph.flowchart.process;fillColor=#FF6666;strokeColor=none;strokeWidth=2;opacity=50;fontColor=#ffffff;fillStyle=auto;" vertex="1" parent="1">
          <mxGeometry x="716.5" y="440" width="30" height="20" as="geometry" />
        </mxCell>
        <mxCell id="dIrE19unJ05-w4xrA9a4-447" value="" style="shape=mxgraph.flowchart.process;fillColor=#FF6666;strokeColor=none;strokeWidth=2;opacity=50;fontColor=#ffffff;fillStyle=auto;" vertex="1" parent="1">
          <mxGeometry x="716.5" y="480" width="50" height="20" as="geometry" />
        </mxCell>
        <mxCell id="dIrE19unJ05-w4xrA9a4-449" value="" style="shape=mxgraph.flowchart.process;fillColor=#FF6666;strokeColor=none;strokeWidth=2;opacity=50;fontColor=#ffffff;fillStyle=auto;" vertex="1" parent="1">
          <mxGeometry x="746.5" y="460" width="20" height="20" as="geometry" />
        </mxCell>
        <mxCell id="dIrE19unJ05-w4xrA9a4-451" value="" style="shape=mxgraph.flowchart.process;fillColor=#FF6666;strokeColor=none;strokeWidth=2;opacity=50;fontColor=#ffffff;fillStyle=auto;" vertex="1" parent="1">
          <mxGeometry x="766.5" y="500" width="20" height="20" as="geometry" />
        </mxCell>
        <mxCell id="dIrE19unJ05-w4xrA9a4-452" value="" style="shape=mxgraph.flowchart.process;fillColor=#FF6666;strokeColor=none;strokeWidth=2;opacity=50;fontColor=#ffffff;fillStyle=auto;" vertex="1" parent="1">
          <mxGeometry x="706" y="520" width="40" height="20" as="geometry" />
        </mxCell>
        <mxCell id="dIrE19unJ05-w4xrA9a4-454" value="" style="shape=mxgraph.flowchart.process;fillColor=#FF6666;strokeColor=none;strokeWidth=2;opacity=50;fontColor=#ffffff;fillStyle=auto;" vertex="1" parent="1">
          <mxGeometry x="786.5" y="540" width="10" height="20" as="geometry" />
        </mxCell>
      </root>
    </mxGraphModel>
  </diagram>
</mxfile>
